<!--?xml version="1.0" standalone="no"?-->              
<svg id="sw-js-blob-svg" viewBox="0 0 100 100" xmlns="http://www.w3.org/2000/svg">
    <defs>
        <linearGradient id="sw-gradient" x1="0" x2="1" y1="1" y2="0">
            <stop id="stop1" stop-color="rgba(248, 117, 55, 1)" offset="0%"></stop>
            <stop id="stop2" stop-color="rgba(251, 168, 31, 1)" offset="100%"></stop>
        </linearGradient>                   
    </defs>                
    <path fill="url(#sw-gradient)" d="M23,-25.1C30.9,-20.7,39.3,-14.6,42.4,-6.1C45.6,2.4,43.6,13.2,37.4,19.4C31.2,25.6,20.9,27.3,11.2,30.9C1.5,34.4,-7.5,39.9,-14.1,37.9C-20.7,35.9,-24.8,26.3,-27.6,17.7C-30.4,9.2,-31.9,1.6,-31.6,-6.5C-31.2,-14.6,-29,-23.3,-23.4,-28C-17.9,-32.8,-8.9,-33.6,-0.7,-32.7C7.5,-31.9,15,-29.4,23,-25.1Z" width="100%" height="100%" transform="translate(50 50)" stroke-width="0" style="transition: 0.3s;"></path>              
</svg>