<svg width="1920" height="81" viewBox="0 0 1920 81" fill="none" xmlns="http://www.w3.org/2000/svg">
<path fill-rule="evenodd" clip-rule="evenodd" d="M1920 20.2499L1840 32.0624C1760 43.8749 1600 67.5 1440 67.5C1280 67.5 1120 43.875 960 33.75C800 23.625 640 27 480 37.125C320 47.2501 160 64.1251 80 72.5626L0 81.0002L-7.08126e-06 5.05133e-09L80 -6.98877e-06C160 -1.39826e-05 320 -2.79702e-05 480 -4.19579e-05C640 -5.59455e-05 800 -6.99332e-05 960 -8.39208e-05C1120 -9.79085e-05 1280 -0.000111896 1440 -0.000125884C1600 -0.000139871 1760 -0.000153859 1840 -0.000160853L1920 -0.000167847L1920 20.2499Z" fill="#FEF4EA"/>
</svg>
